HIERARCHY
ROOT Hips
{
	OFFSET 0.000000 88.474243 0.000000
	CHANNELS 6 Xposition Yposition Zposition Zrotation Yrotation Xrotation 
	JOINT Hips_Spine
	{
		OFFSET 0.000000 0.000000 0.000000
		CHANNELS 3 Zrotation Yrotation Xrotation
		JOINT Spine
		{
			OFFSET 0.005100 8.711998 -0.691000
			CHANNELS 3 Zrotation Yrotation Xrotation
			JOINT Spine1
			{
				OFFSET -0.009200 8.660301 -1.275000
				CHANNELS 3 Zrotation Yrotation Xrotation
				JOINT Spine2
				{
					OFFSET 0.006300 9.852501 -1.857000
					CHANNELS 3 Zrotation Yrotation Xrotation
					JOINT Spine2_Neck
					{
						OFFSET 0.000000 0.000000 0.000000
						CHANNELS 3 Zrotation Yrotation Xrotation
						JOINT Neck
						{
							OFFSET 0.016300 11.420799 -0.263300
							CHANNELS 3 Zrotation Yrotation Xrotation
							End Site #name: Head
							{
								OFFSET -0.019200 9.262405 2.362500
							}
						}
					}
					JOINT Spine2_LeftShoulder
					{
						OFFSET 0.000000 0.000000 0.000000
						CHANNELS 3 Zrotation Yrotation Xrotation
						JOINT LeftShoulder
						{
							OFFSET 5.616900 6.732201 -0.345700
							CHANNELS 3 Zrotation Yrotation Xrotation
							JOINT LeftArm
							{
								OFFSET 10.664888 -0.183372 -2.440700
								CHANNELS 3 Zrotation Yrotation Xrotation
								JOINT LeftForeArm
								{
									OFFSET 27.459126 0.000000 0.000000
									CHANNELS 3 Zrotation Yrotation Xrotation
									End Site #name: LeftHand
									{
										OFFSET 21.306858 0.000000 0.000000
									}
								}
							}
						}
					}
					JOINT Spine2_RightShoulder
					{
						OFFSET 0.000000 0.000000 0.000000
						CHANNELS 3 Zrotation Yrotation Xrotation
						JOINT RightShoulder
						{
							OFFSET -5.580300 6.737503 -0.344400
							CHANNELS 3 Zrotation Yrotation Xrotation
							JOINT RightArm
							{
								OFFSET -10.679335 -0.188484 -2.383900
								CHANNELS 3 Zrotation Yrotation Xrotation
								JOINT RightForeArm
								{
									OFFSET -27.503529 0.000000 0.000000
									CHANNELS 3 Zrotation Yrotation Xrotation
									End Site #name: RightHand
									{
										OFFSET -21.306808 0.000000 0.000000
									}
								}
							}
						}
					}
				}
			}
		}
	}
	JOINT Hips_LeftUpLeg
	{
		OFFSET 0.000000 0.000000 0.000000
		CHANNELS 3 Zrotation Yrotation Xrotation
		JOINT LeftUpLeg
		{
			OFFSET 6.857700 -6.739601 0.312100
			CHANNELS 3 Zrotation Yrotation Xrotation
			JOINT LeftLeg
			{
				OFFSET -0.367590 -34.731552 -4.572400
				CHANNELS 3 Zrotation Yrotation Xrotation
				End Site #name: LeftFoot
				{
					OFFSET 0.367590 -34.656704 -6.067400
				}
			}
		}
	}
	JOINT Hips_RightUpLeg
	{
		OFFSET 0.000000 0.000000 0.000000
		CHANNELS 3 Zrotation Yrotation Xrotation
		JOINT RightUpLeg
		{
			OFFSET -6.876100 -6.733299 0.301000
			CHANNELS 3 Zrotation Yrotation Xrotation
			JOINT RightLeg
			{
				OFFSET 0.347353 -34.795158 -4.515900
				CHANNELS 3 Zrotation Yrotation Xrotation
				End Site #name: RightFoot
				{
					OFFSET -0.347353 -34.589367 -6.070300
				}
			}
		}
	}
}
MOTION
Frames: 15
Frame Time: 0.041667
-0.004000 0.047014 0.099268 -0.297257 -25.989102 0.384607 -0.000000 0.000000 0.000000 -1.176053 4.141548 2.689872 -0.147051 0.870770 -0.294353 0.000000 0.000000 0.000000 -0.096460 1.016401 -1.455841 2.218710 0.185504 9.490779 -0.408974 1.061102 -1.517761 -12.179057 -9.461622 2.979984 -53.864259 1.353220 -4.628589 5.356976 -16.125151 15.090017 -0.025847 1.227121 -0.458456 11.158250 -2.182693 0.704765 60.137576 -8.325245 19.122904 -4.589269 21.608951 -0.109010 0.000000 0.000000 0.000000 6.051020 5.416875 -18.879826 2.071788 1.128999 19.404046 0.000000 0.000000 0.000000 -4.867501 -16.064497 -17.897850 -0.737804 5.261824 21.085359 
-0.065384 0.128662 0.137737 -0.086584 -26.887211 0.206665 -0.000000 0.000000 -0.000000 -0.410608 1.416173 1.018096 -0.316716 0.956679 0.994537 0.000000 0.000000 0.000000 -0.133956 0.923452 0.546970 2.231477 0.576130 8.372611 -0.050734 0.833427 1.029807 -13.534674 -4.287575 1.755909 -58.472376 -1.353223 -3.089883 -0.906954 -13.979275 11.229625 -0.327459 0.759064 0.635739 13.977013 -0.457216 1.028921 57.292242 -1.707485 28.394421 -1.716432 15.090417 -7.432857 0.000000 -0.000000 -0.000000 6.087583 2.128054 -17.800787 2.114641 0.793387 17.570507 0.000000 -0.000000 -0.000000 -4.244561 -13.664805 -16.883358 -1.249296 6.828271 19.427138 
-0.073053 0.172483 0.143822 -0.193696 -26.940407 -0.065155 -0.000000 0.000000 -0.000000 -0.859277 1.971670 1.126957 -0.250095 0.936575 0.771812 0.000000 0.000000 0.000000 -0.128783 0.963377 1.116117 2.470935 0.702303 6.156100 -0.072322 1.040301 1.239953 -14.662392 -5.172131 2.015870 -59.514306 -0.553762 -4.480238 -1.387576 -22.665498 7.095548 -0.189830 1.155883 0.979454 12.497876 3.513486 1.979462 59.297782 -1.944594 30.772931 -2.494027 18.549235 -5.741748 0.000000 0.000000 -0.000000 6.210291 1.054949 -17.265196 1.543080 0.068839 16.998432 0.000000 -0.000000 -0.000000 -4.318150 -14.025927 -16.393149 -0.760986 7.797734 19.360278 
-0.044136 0.188833 0.138593 -0.258202 -26.528731 -0.203067 -0.000000 0.000000 -0.000000 -1.155572 2.389939 1.281970 -0.329093 1.017052 0.847652 0.000000 0.000000 0.000000 -0.159252 1.087394 1.312688 2.575070 0.469702 4.365363 -0.110602 1.111278 1.166864 -15.687250 -7.938541 2.704379 -61.234054 -0.794715 -3.389602 -1.286726 -27.342865 5.809831 -0.185921 1.198713 1.167640 13.508475 3.592449 2.097092 60.671496 -2.207445 28.651339 -1.434893 21.061386 -6.142056 -0.000000 0.000000 -0.000000 6.221101 0.491395 -17.159558 1.586991 -0.171278 16.860652 -0.000000 -0.000000 -0.000000 -4.494164 -14.299147 -16.057821 -0.523131 8.018134 19.265860 
0.036954 0.194768 0.134674 -0.356755 -26.249269 -0.212341 -0.000000 0.000000 0.000000 -1.239294 2.438272 1.276996 -0.398583 0.886603 0.816754 0.000000 0.000000 0.000000 -0.225447 1.032859 1.272001 2.583820 0.270680 3.030049 -0.190280 0.973831 1.043321 -15.529700 -9.182675 2.968469 -61.628260 -2.456054 -0.892770 -1.306078 -28.192968 5.736886 -0.244584 1.051335 1.160133 14.443585 3.007154 2.093592 60.847331 -1.552760 28.039251 -1.529498 21.362159 -7.070904 -0.000000 0.000000 -0.000000 6.279630 0.351179 -17.233511 1.598438 -0.139329 16.977886 -0.000000 -0.000000 -0.000000 -4.586975 -14.388887 -15.803735 -0.431401 8.021033 19.053387 
0.157914 0.196654 0.136745 -0.449372 -26.121725 -0.186488 -0.000000 0.000000 0.000000 -1.302368 2.363341 1.122305 -0.445711 0.769143 0.743929 0.000000 0.000000 0.000000 -0.281177 0.899803 1.189038 2.513346 0.107612 2.345690 -0.237655 0.906686 0.939736 -15.202571 -9.641461 3.051284 -61.582694 -3.776328 1.218700 -1.117607 -27.983490 6.693108 -0.302662 0.884033 1.109652 14.652791 2.954150 2.117662 60.732812 -0.880387 27.628689 -1.780008 21.240347 -7.228628 -0.000000 0.000000 -0.000000 6.316730 0.316150 -17.234022 1.575845 -0.093013 16.943503 -0.000000 -0.000000 -0.000000 -4.623372 -14.438185 -15.625919 -0.429223 8.018260 18.819136 
0.305864 0.196105 0.143121 -0.526080 -26.066411 -0.161790 -0.000000 0.000000 0.000000 -1.348777 2.322141 0.936344 -0.467367 0.680031 0.661384 0.000000 0.000000 0.000000 -0.313821 0.787746 1.086549 2.357262 0.021987 2.010314 -0.267052 0.835741 0.879108 -14.941606 -9.593596 3.002084 -61.101094 -4.480869 2.904535 -0.925447 -27.443245 7.479541 -0.328896 0.759336 1.016656 14.423698 3.398355 2.202500 60.655361 -0.352640 26.787776 -1.744379 20.877876 -6.961835 -0.000000 0.000000 -0.000000 6.322617 0.341469 -17.205093 1.577235 -0.017713 16.865829 -0.000000 -0.000000 -0.000000 -4.638082 -14.459088 -15.485329 -0.493958 7.971756 18.557371 
0.467207 0.193842 0.151873 -0.596488 -26.073705 -0.128278 -0.000000 0.000000 0.000000 -1.376977 2.310042 0.767395 -0.482441 0.623249 0.567569 0.000000 0.000000 0.000000 -0.333845 0.708810 0.979904 2.170615 0.039307 1.769508 -0.285560 0.771826 0.823859 -14.834320 -9.220508 2.893561 -60.508575 -4.580530 3.614196 -0.863736 -26.685354 7.502690 -0.352689 0.683307 0.915797 14.058159 3.924400 2.318033 60.618383 0.050435 25.988897 -1.434153 20.240691 -6.209746 -0.000000 0.000000 -0.000000 6.293620 0.410486 -17.229815 1.615098 0.049019 16.872794 -0.000000 -0.000000 -0.000000 -4.645498 -14.463484 -15.397515 -0.574544 7.918952 18.320129 
0.628573 0.189984 0.161640 -0.678976 -26.162496 -0.071802 -0.000000 0.000000 0.000000 -1.435427 2.298326 0.669144 -0.500526 0.584408 0.477402 0.000000 0.000000 0.000000 -0.355376 0.653913 0.895293 1.986235 0.101878 1.591874 -0.307692 0.732552 0.768886 -14.839530 -8.769728 2.797579 -59.926066 -4.351980 3.742538 -0.884171 -26.249627 7.102751 -0.376931 0.642962 0.819525 13.669013 4.346631 2.409122 60.715357 0.307082 25.127471 -1.250369 20.040755 -5.307191 -0.000000 0.000000 -0.000000 6.262861 0.488861 -17.300854 1.697080 0.160572 16.960133 -0.000000 -0.000000 -0.000000 -4.654837 -14.472476 -15.369176 -0.640622 7.872513 18.139667 
0.789094 0.185328 0.172632 -0.768904 -26.286381 0.008659 -0.000000 0.000000 0.000000 -1.499424 2.278757 0.585833 -0.526394 0.558592 0.414129 0.000000 0.000000 0.000000 -0.379828 0.617583 0.844951 1.840696 0.162366 1.439904 -0.341579 0.704987 0.728856 -14.853912 -8.322174 2.699309 -59.511083 -4.067674 3.708908 -0.945550 -26.152062 6.699540 -0.399085 0.621962 0.756798 13.328635 4.609096 2.481716 60.814297 0.073428 24.271546 -1.199942 20.156037 -4.386039 -0.000000 0.000000 -0.000000 6.238221 0.575314 -17.413119 1.798624 0.292397 17.107526 -0.000000 -0.000000 -0.000000 -4.664814 -14.489277 -15.380510 -0.682899 7.834435 17.999561 
0.948423 0.180256 0.184721 -0.868749 -26.414911 0.098604 -0.000000 0.000000 0.000000 -1.568386 2.267152 0.538361 -0.558301 0.540624 0.375264 0.000000 0.000000 0.000000 -0.409866 0.591876 0.822673 1.727672 0.195171 1.294551 -0.388971 0.692183 0.699050 -14.907121 -8.001484 2.628056 -59.303910 -3.942841 3.700982 -1.007016 -26.239345 6.489007 -0.425168 0.609081 0.726280 12.921285 4.772156 2.529141 61.015115 -0.463900 23.119348 -1.248728 20.628786 -3.579357 -0.000000 0.000000 -0.000000 6.230607 0.669402 -17.544004 1.899593 0.429707 17.289991 -0.000000 -0.000000 -0.000000 -4.668856 -14.489650 -15.418134 -0.701255 7.804401 17.897564 
1.106582 0.175447 0.197956 -0.975440 -26.547504 0.190379 -0.000000 0.000000 0.000000 -1.636779 2.258972 0.527002 -0.591695 0.527386 0.348219 0.000000 0.000000 0.000000 -0.444073 0.575313 0.810668 1.621713 0.212535 1.138284 -0.436589 0.679215 0.682982 -14.939635 -7.795949 2.578924 -59.156025 -3.993760 3.699188 -1.036824 -26.395092 6.469552 -0.451636 0.597992 0.713759 12.495082 4.774341 2.529197 61.204554 -0.986937 22.154447 -1.338861 21.398699 -3.100738 -0.000000 0.000000 -0.000000 6.239447 0.770755 -17.664786 1.986874 0.551259 17.458753 -0.000000 -0.000000 -0.000000 -4.670203 -14.469153 -15.450013 -0.705944 7.771338 17.800824 
1.263641 0.171080 0.212017 -1.082822 -26.691826 0.277819 -0.000000 0.000000 0.000000 -1.690081 2.273337 0.541854 -0.624572 0.521751 0.337359 0.000000 0.000000 0.000000 -0.476664 0.566558 0.810689 1.510315 0.228677 0.958788 -0.479680 0.674782 0.678400 -15.001096 -7.664174 2.550319 -59.032372 -4.053649 3.574027 -1.036264 -26.554640 6.613081 -0.477954 0.590723 0.720854 12.139062 4.755928 2.524744 61.361879 -1.476083 21.643975 -1.460117 22.325561 -3.071642 -0.000000 0.000000 -0.000000 6.258196 0.879985 -17.768753 2.053316 0.648496 17.596560 -0.000000 -0.000000 -0.000000 -4.667761 -14.433208 -15.470289 -0.707094 7.743845 17.692973 
1.420354 0.166887 0.226823 -1.188560 -26.854914 0.359317 -0.000000 0.000000 0.000000 -1.737839 2.326512 0.577593 -0.653398 0.527838 0.340629 0.000000 0.000000 0.000000 -0.506834 0.571668 0.819452 1.387900 0.243875 0.759468 -0.516273 0.675982 0.687741 -15.066180 -7.585520 2.535302 -58.852463 -4.130556 3.329688 -1.019386 -26.722794 6.841983 -0.507984 0.593866 0.747377 11.816259 4.854257 2.545729 61.555410 -1.895043 21.488524 -1.584410 23.527935 -3.487877 -0.000000 0.000000 -0.000000 6.278525 0.988000 -17.854724 2.092317 0.709549 17.710770 -0.000000 -0.000000 -0.000000 -4.658152 -14.380491 -15.484228 -0.713050 7.722024 17.572800 
1.577273 0.162813 0.242345 -1.289965 -27.041116 0.433863 -0.000000 0.000000 0.000000 -1.779562 2.397600 0.622419 -0.676613 0.539282 0.355950 0.000000 0.000000 0.000000 -0.532566 0.585215 0.837953 1.253285 0.255751 0.554210 -0.543272 0.684531 0.710026 -15.143814 -7.549872 2.536096 -58.569641 -4.101714 3.102683 -0.987552 -26.818552 7.088867 -0.532935 0.599784 0.784472 11.521108 5.089316 2.591465 61.717942 -2.326173 21.613544 -1.752349 24.875849 -4.276670 -0.000000 0.000000 -0.000000 6.298923 1.097541 -17.924297 2.107372 0.741119 17.806342 -0.000000 -0.000000 -0.000000 -4.645779 -14.320165 -15.499991 -0.731937 7.691303 17.450931 
